<mxfile host="Electron" agent="Mozilla/5.0 (Windows NT 10.0; Win64; x64) AppleWebKit/537.36 (KHTML, like Gecko) draw.io/24.7.17 Chrome/128.0.6613.36 Electron/32.0.1 Safari/537.36" version="24.7.17">
  <diagram name="Страница — 1" id="lJIZHWZP1TrEnSSWQiDr">
    <mxGraphModel dx="1050" dy="629" grid="1" gridSize="10" guides="1" tooltips="1" connect="1" arrows="1" fold="1" page="1" pageScale="1" pageWidth="827" pageHeight="1169" math="0" shadow="0">
      <root>
        <mxCell id="0" />
        <mxCell id="1" parent="0" />
        <mxCell id="aYnnIS6GaJh7aOv3nnco-3" value="" style="edgeStyle=orthogonalEdgeStyle;rounded=0;orthogonalLoop=1;jettySize=auto;html=1;" edge="1" parent="1" source="aYnnIS6GaJh7aOv3nnco-1" target="aYnnIS6GaJh7aOv3nnco-2">
          <mxGeometry relative="1" as="geometry" />
        </mxCell>
        <mxCell id="aYnnIS6GaJh7aOv3nnco-1" value="Начало" style="ellipse;whiteSpace=wrap;html=1;fontFamily=Times New Roman;fontSize=14;" vertex="1" parent="1">
          <mxGeometry x="264" y="50" width="300" height="110" as="geometry" />
        </mxCell>
        <mxCell id="aYnnIS6GaJh7aOv3nnco-5" value="" style="edgeStyle=orthogonalEdgeStyle;rounded=0;orthogonalLoop=1;jettySize=auto;html=1;" edge="1" parent="1" source="aYnnIS6GaJh7aOv3nnco-2" target="aYnnIS6GaJh7aOv3nnco-4">
          <mxGeometry relative="1" as="geometry" />
        </mxCell>
        <mxCell id="aYnnIS6GaJh7aOv3nnco-2" value="&lt;div style=&quot;text-align: justify; font-size: 14px;&quot;&gt;&lt;div&gt;string Federalnoe = &quot;Федеральное&quot;;&lt;/div&gt;&lt;div&gt;string Gosudarstcennoe = &quot;Государственное&quot;;&lt;/div&gt;&lt;div&gt;string Budgetnoe = &quot;Бюджетное&quot;;&lt;/div&gt;&lt;div&gt;string Obrazovatelnoe = &quot;Образовательное&quot;;&lt;/div&gt;&lt;div&gt;string Uchrezhdenie = &quot;Учреждение&quot;;&lt;/div&gt;&lt;div&gt;string Vysshego = &quot;Высшего&quot;;&lt;/div&gt;&lt;div&gt;string Obrazovaniya = &quot;Образования&quot;;&lt;/div&gt;&lt;div&gt;string Rossiyskiy = &quot;Российский&quot;;&lt;/div&gt;&lt;div&gt;string Universitet = &quot;Университет&quot;;&lt;/div&gt;&lt;div&gt;string Transporta = &quot;Транспорта&quot;;&lt;/div&gt;&lt;div&gt;&lt;br&gt;&lt;/div&gt;&lt;/div&gt;" style="shape=parallelogram;perimeter=parallelogramPerimeter;whiteSpace=wrap;html=1;fixedSize=1;fontFamily=Times New Roman;fontSize=14;" vertex="1" parent="1">
          <mxGeometry x="254" y="200" width="320" height="210" as="geometry" />
        </mxCell>
        <mxCell id="aYnnIS6GaJh7aOv3nnco-7" value="" style="edgeStyle=orthogonalEdgeStyle;rounded=0;orthogonalLoop=1;jettySize=auto;html=1;exitX=0.5;exitY=0.855;exitDx=0;exitDy=0;exitPerimeter=0;" edge="1" parent="1" source="aYnnIS6GaJh7aOv3nnco-4" target="aYnnIS6GaJh7aOv3nnco-6">
          <mxGeometry relative="1" as="geometry" />
        </mxCell>
        <mxCell id="aYnnIS6GaJh7aOv3nnco-4" value="&lt;div style=&quot;text-align: justify; font-size: 14px;&quot;&gt;&lt;div&gt;Console.WriteLine($&quot;{Federalnoe} {Gosudarstcennoe} &quot; +&lt;/div&gt;&lt;div&gt;&amp;nbsp; &amp;nbsp; &amp;nbsp; &amp;nbsp; &amp;nbsp; &amp;nbsp; &amp;nbsp; &amp;nbsp; &amp;nbsp; $&quot;{Budgetnoe} {Obrazovatelnoe} &quot; +&lt;/div&gt;&lt;div&gt;&amp;nbsp; &amp;nbsp; &amp;nbsp; &amp;nbsp; &amp;nbsp; &amp;nbsp; &amp;nbsp; &amp;nbsp; &amp;nbsp; $&quot;{Uchrezhdenie} {Vysshego} &quot; +&lt;/div&gt;&lt;div&gt;&amp;nbsp; &amp;nbsp; &amp;nbsp; &amp;nbsp; &amp;nbsp; &amp;nbsp; &amp;nbsp; &amp;nbsp; &amp;nbsp; $&quot;{Obrazovaniya} {Rossiyskiy} &quot; +&lt;/div&gt;&lt;div&gt;&amp;nbsp; &amp;nbsp; &amp;nbsp; &amp;nbsp; &amp;nbsp; &amp;nbsp; &amp;nbsp; &amp;nbsp; &amp;nbsp; $&quot;{Universitet} {Transporta}&quot;);&lt;/div&gt;&lt;div&gt;&lt;br&gt;&lt;/div&gt;&lt;/div&gt;" style="strokeWidth=2;html=1;shape=mxgraph.flowchart.document2;whiteSpace=wrap;size=0.25;fontFamily=Times New Roman;fontSize=14;spacing=2;" vertex="1" parent="1">
          <mxGeometry x="243.5" y="460" width="341" height="160" as="geometry" />
        </mxCell>
        <mxCell id="aYnnIS6GaJh7aOv3nnco-6" value="Конец" style="ellipse;whiteSpace=wrap;html=1;fontFamily=Times New Roman;fontSize=14;" vertex="1" parent="1">
          <mxGeometry x="264" y="670" width="300" height="110" as="geometry" />
        </mxCell>
        <mxCell id="aYnnIS6GaJh7aOv3nnco-8" value="1." style="text;html=1;align=center;verticalAlign=middle;resizable=0;points=[];autosize=1;strokeColor=none;fillColor=none;fontFamily=Times New Roman;fontSize=14;" vertex="1" parent="1">
          <mxGeometry x="264" y="50" width="30" height="30" as="geometry" />
        </mxCell>
        <mxCell id="aYnnIS6GaJh7aOv3nnco-9" value="2." style="text;html=1;align=center;verticalAlign=middle;resizable=0;points=[];autosize=1;strokeColor=none;fillColor=none;fontFamily=Times New Roman;fontSize=14;" vertex="1" parent="1">
          <mxGeometry x="264" y="170" width="30" height="30" as="geometry" />
        </mxCell>
        <mxCell id="aYnnIS6GaJh7aOv3nnco-10" value="3." style="text;html=1;align=center;verticalAlign=middle;resizable=0;points=[];autosize=1;strokeColor=none;fillColor=none;fontFamily=Times New Roman;fontSize=14;" vertex="1" parent="1">
          <mxGeometry x="264" y="430" width="30" height="30" as="geometry" />
        </mxCell>
        <mxCell id="aYnnIS6GaJh7aOv3nnco-11" value="4." style="text;html=1;align=center;verticalAlign=middle;resizable=0;points=[];autosize=1;strokeColor=none;fillColor=none;fontFamily=Times New Roman;fontSize=14;" vertex="1" parent="1">
          <mxGeometry x="264" y="670" width="30" height="30" as="geometry" />
        </mxCell>
      </root>
    </mxGraphModel>
  </diagram>
</mxfile>
